<svg width="398" height="115" viewBox="0 0 398 115" fill="none" xmlns="http://www.w3.org/2000/svg">
<rect x="285.5" y="2.5" width="109.798" height="109.798" rx="2.5" fill="url(#paint0_linear_98_4)" stroke="#B6895C" stroke-width="5"/>
<rect x="2.5" y="2.5" width="109.798" height="109.798" rx="2.5" fill="url(#paint1_linear_98_4)" stroke="#B6895C" stroke-width="5"/>
<path d="M84.8561 85.0892L84.8561 85.0892L85.0468 85.1854C85.305 85.3157 85.305 85.6843 85.0468 85.8146L84.8561 85.9108C84.2415 86.2209 83.7626 86.7392 83.5 87.3668C83.2374 86.7392 82.7585 86.2209 82.1439 85.9108L81.9532 85.8146L81.2775 87.1538L81.9532 85.8146C81.695 85.6843 81.695 85.3157 81.9532 85.1854L82.1439 85.0892C82.7585 84.7791 83.2374 84.2608 83.5 83.6332C83.7626 84.2608 84.2415 84.7791 84.8561 85.0892Z" stroke="#F5F5F5" stroke-width="3"/>
<path d="M26.8561 68.0892L26.8561 68.0892L27.0468 68.1854C27.305 68.3157 27.305 68.6843 27.0468 68.8146L26.8561 68.9108C26.2415 69.2209 25.7626 69.7392 25.5 70.3668C25.2374 69.7392 24.7585 69.2209 24.1439 68.9108L23.9532 68.8146L23.2775 70.1538L23.9532 68.8146C23.695 68.6843 23.695 68.3157 23.9532 68.1854L24.1439 68.0892C24.7585 67.7791 25.2374 67.2608 25.5 66.6332C25.7626 67.2608 26.2415 67.7791 26.8561 68.0892Z" stroke="#D9D9D9" stroke-width="3"/>
<path d="M64.8561 29.0892L64.8561 29.0892L65.0468 29.1854C65.305 29.3157 65.305 29.6843 65.0468 29.8146L64.8561 29.9108C64.2415 30.2209 63.7626 30.7392 63.5 31.3668C63.2374 30.7392 62.7585 30.2209 62.1439 29.9108L61.9532 29.8146L61.2775 31.1538L61.9532 29.8146C61.695 29.6843 61.695 29.3157 61.9532 29.1854L62.1439 29.0892C62.7585 28.7791 63.2374 28.2608 63.5 27.6332C63.7626 28.2608 64.2415 28.7791 64.8561 29.0892Z" stroke="#D9D9D9" stroke-width="3"/>
<path d="M369.856 87.0892L370.047 87.1854C370.305 87.3157 370.305 87.6843 370.047 87.8146L369.856 87.9108C369.242 88.2209 368.763 88.7392 368.5 89.3668C368.237 88.7392 367.758 88.2209 367.144 87.9108L366.953 87.8146C366.695 87.6843 366.695 87.3157 366.953 87.1854L367.144 87.0892C367.758 86.7791 368.237 86.2608 368.5 85.6332C368.763 86.2608 369.242 86.7791 369.856 87.0892Z" stroke="#F5F5F5" stroke-width="3"/>
<path d="M311.856 70.0892L311.856 70.0892L312.047 70.1854C312.305 70.3157 312.305 70.6843 312.047 70.8146L311.856 70.9108C311.242 71.2209 310.763 71.7392 310.5 72.3668C310.237 71.7392 309.758 71.2209 309.144 70.9108L308.953 70.8146L308.277 72.1538L308.953 70.8146C308.695 70.6843 308.695 70.3157 308.953 70.1854L309.144 70.0892C309.758 69.7791 310.237 69.2608 310.5 68.6332C310.763 69.2608 311.242 69.7791 311.856 70.0892Z" stroke="#D9D9D9" stroke-width="3"/>
<path d="M349.856 31.0892L349.856 31.0892L350.047 31.1854C350.305 31.3157 350.305 31.6843 350.047 31.8146L349.856 31.9108C349.242 32.2209 348.763 32.7392 348.5 33.3668C348.237 32.7392 347.758 32.2209 347.144 31.9108L346.953 31.8146L346.277 33.1538L346.953 31.8146C346.695 31.6843 346.695 31.3157 346.953 31.1854L347.144 31.0892C347.758 30.7791 348.237 30.2608 348.5 29.6332C348.763 30.2608 349.242 30.7791 349.856 31.0892Z" stroke="#D9D9D9" stroke-width="3"/>
<defs>
<linearGradient id="paint0_linear_98_4" x1="340.399" y1="0" x2="340.399" y2="114.798" gradientUnits="userSpaceOnUse">
<stop offset="0.2" stop-color="#115376"/>
<stop offset="1" stop-color="#7FB0CA"/>
</linearGradient>
<linearGradient id="paint1_linear_98_4" x1="57.399" y1="0" x2="57.399" y2="114.798" gradientUnits="userSpaceOnUse">
<stop offset="0.2" stop-color="#115376"/>
<stop offset="1" stop-color="#7FB0CA"/>
</linearGradient>
</defs>
</svg>
