<svg width="511" height="221" viewBox="0 0 511 221" fill="none" xmlns="http://www.w3.org/2000/svg">
<path d="M259 9C257.5 8.5 255.4 6.3 259 1.5C260.5 3.33333 262.6 7.4 259 9Z" fill="#CB5E15" stroke="url(#paint0_linear_163_3)"/>
<rect x="125.361" y="132.952" width="10.9259" height="86.7398" fill="#AB8888"/>
<rect y="19" width="10.9259" height="200.692" fill="#AB8888"/>
<rect x="5.17554" y="124.874" width="131.111" height="16.1574" fill="#AB8888"/>
<rect width="10.9259" height="86.7398" transform="matrix(-1 0 0 1 384.926 133.952)" fill="#AB8888"/>
<rect width="10.9259" height="200.692" transform="matrix(-1 0 0 1 510.287 20)" fill="#AB8888"/>
<rect width="131.111" height="16.1574" transform="matrix(-1 0 0 1 505.111 125.874)" fill="#AB8888"/>
<rect x="161.014" y="61.5536" width="7.97525" height="158.138" fill="#AB8888"/>
<rect x="161.014" y="52.3528" width="190.986" height="21.8519" fill="#AB8888"/>
<rect x="344.025" y="61.5536" width="7.97525" height="158.138" fill="#AB8888"/>
<path d="M320.5 52C302.5 52 296 43.3333 295 39C314.6 44.2 337.167 41.1667 346 39C345 43.3333 338.5 52 320.5 52Z" fill="#D9D9D9" stroke="#D9D9D9"/>
<path d="M189.5 52C171.5 52 165 43.3333 164 39C183.6 44.2 206.167 41.1667 215 39C214 43.3333 207.5 52 189.5 52Z" fill="#D9D9D9" stroke="#D9D9D9"/>
<path d="M226.504 52H227.321C229.349 51.5902 230.2 48.0168 230.532 44.0252C230.346 40.9809 230.504 37.5195 230.504 34.5C230.504 32.4977 230.504 32.5144 230.624 32.5C224.32 32.5 222.917 24.1667 223.004 20C226.004 20.5 236.004 20.5 238.504 20C238.904 29.2 233.417 32.1667 230.624 32.5C230.561 33.5458 230.941 39.1034 230.532 44.0252C230.792 48.2848 231.726 51.7276 234.707 52H235.504C235.223 52.0234 234.958 52.0229 234.707 52H227.321C227.067 52.0512 226.795 52.053 226.504 52Z" fill="#D9D9D9"/>
<path d="M230.624 32.5C230.504 32.5144 230.504 32.4977 230.504 34.5C230.504 42.1 229.504 52.5 235.504 52H226.504C232.004 53 230.504 34.5 230.624 32.5ZM230.624 32.5C233.417 32.1667 238.904 29.2 238.504 20C236.004 20.5 226.004 20.5 223.004 20C222.917 24.1667 224.32 32.5 230.624 32.5Z" stroke="#D9D9D9"/>
<path d="M282.504 52H283.321C285.349 51.5902 286.2 48.0168 286.532 44.0252C286.346 40.9809 286.504 37.5195 286.504 34.5C286.504 32.4977 286.504 32.5144 286.624 32.5C280.32 32.5 278.917 24.1667 279.004 20C282.004 20.5 292.004 20.5 294.504 20C294.904 29.2 289.417 32.1667 286.624 32.5C286.561 33.5458 286.941 39.1034 286.532 44.0252C286.792 48.2848 287.726 51.7276 290.707 52H291.504C291.223 52.0234 290.958 52.0229 290.707 52H283.321C283.067 52.0512 282.795 52.053 282.504 52Z" fill="#D9D9D9"/>
<path d="M286.624 32.5C286.504 32.5144 286.504 32.4977 286.504 34.5C286.504 42.1 285.504 52.5 291.504 52H282.504C288.004 53 286.504 34.5 286.624 32.5ZM286.624 32.5C289.417 32.1667 294.904 29.2 294.504 20C292.004 20.5 282.004 20.5 279.004 20C278.917 24.1667 280.32 32.5 286.624 32.5Z" stroke="#D9D9D9"/>
<rect x="257" y="9" width="4" height="43" fill="#FFF9F9"/>
<defs>
<linearGradient id="paint0_linear_163_3" x1="259" y1="1.5" x2="259" y2="9" gradientUnits="userSpaceOnUse">
<stop stop-color="#F99E59"/>
<stop offset="1" stop-color="#935D35"/>
</linearGradient>
</defs>
</svg>
