<svg width="1200" height="277" viewBox="0 0 1200 277" fill="none" xmlns="http://www.w3.org/2000/svg">
<path d="M334 9C332.5 8.5 330.4 6.3 334 1.5C335.5 3.33333 337.6 7.4 334 9Z" fill="#CB5E15" stroke="url(#paint0_linear_87_3)"/>
<rect y="218" width="1200" height="59" fill="#342719"/>
<rect x="200.361" y="132.952" width="10.9259" height="86.7398" fill="#AB8888"/>
<rect x="75" y="19" width="10.9259" height="200.692" fill="#AB8888"/>
<rect x="80.1755" y="124.874" width="131.111" height="16.1574" fill="#AB8888"/>
<rect width="10.9259" height="86.7398" transform="matrix(-1 0 0 1 459.926 133.952)" fill="#AB8888"/>
<rect width="10.9259" height="200.692" transform="matrix(-1 0 0 1 585.287 20)" fill="#AB8888"/>
<rect width="131.111" height="16.1574" transform="matrix(-1 0 0 1 580.111 125.874)" fill="#AB8888"/>
<rect x="236.014" y="61.5536" width="7.97525" height="158.138" fill="#AB8888"/>
<rect x="236.014" y="52.3528" width="190.986" height="21.8519" fill="#AB8888"/>
<rect x="419.025" y="61.5536" width="7.97525" height="158.138" fill="#AB8888"/>
<path d="M395.5 52C377.5 52 371 43.3333 370 39C389.6 44.2 412.167 41.1667 421 39C420 43.3333 413.5 52 395.5 52Z" fill="#D9D9D9" stroke="#D9D9D9"/>
<path d="M264.5 52C246.5 52 240 43.3333 239 39C258.6 44.2 281.167 41.1667 290 39C289 43.3333 282.5 52 264.5 52Z" fill="#D9D9D9" stroke="#D9D9D9"/>
<path d="M301.504 52H302.321C304.349 51.5902 305.2 48.0168 305.532 44.0252C305.346 40.9809 305.504 37.5195 305.504 34.5C305.504 32.4977 305.504 32.5144 305.624 32.5C299.32 32.5 297.917 24.1667 298.004 20C301.004 20.5 311.004 20.5 313.504 20C313.904 29.2 308.417 32.1667 305.624 32.5C305.561 33.5458 305.941 39.1034 305.532 44.0252C305.792 48.2848 306.726 51.7276 309.707 52H310.504C310.223 52.0234 309.958 52.0229 309.707 52H302.321C302.067 52.0512 301.795 52.053 301.504 52Z" fill="#D9D9D9"/>
<path d="M305.624 32.5C305.504 32.5144 305.504 32.4977 305.504 34.5C305.504 42.1 304.504 52.5 310.504 52H301.504C307.004 53 305.504 34.5 305.624 32.5ZM305.624 32.5C308.417 32.1667 313.904 29.2 313.504 20C311.004 20.5 301.004 20.5 298.004 20C297.917 24.1667 299.32 32.5 305.624 32.5Z" stroke="#D9D9D9"/>
<path d="M357.504 52H358.321C360.349 51.5902 361.2 48.0168 361.532 44.0252C361.346 40.9809 361.504 37.5195 361.504 34.5C361.504 32.4977 361.504 32.5144 361.624 32.5C355.32 32.5 353.917 24.1667 354.004 20C357.004 20.5 367.004 20.5 369.504 20C369.904 29.2 364.417 32.1667 361.624 32.5C361.561 33.5458 361.941 39.1034 361.532 44.0252C361.792 48.2848 362.726 51.7276 365.707 52H366.504C366.223 52.0234 365.958 52.0229 365.707 52H358.321C358.067 52.0512 357.795 52.053 357.504 52Z" fill="#D9D9D9"/>
<path d="M361.624 32.5C361.504 32.5144 361.504 32.4977 361.504 34.5C361.504 42.1 360.504 52.5 366.504 52H357.504C363.004 53 361.504 34.5 361.624 32.5ZM361.624 32.5C364.417 32.1667 369.904 29.2 369.504 20C367.004 20.5 357.004 20.5 354.004 20C353.917 24.1667 355.32 32.5 361.624 32.5Z" stroke="#D9D9D9"/>
<rect x="332" y="9" width="4" height="43" fill="#FFF9F9"/>
<defs>
<linearGradient id="paint0_linear_87_3" x1="334" y1="1.5" x2="334" y2="9" gradientUnits="userSpaceOnUse">
<stop stop-color="#F99E59"/>
<stop offset="1" stop-color="#935D35"/>
</linearGradient>
</defs>
</svg>
