<svg width="135" height="135" viewBox="0 0 135 135" fill="none" xmlns="http://www.w3.org/2000/svg">
<rect x="12.3552" y="12.3552" width="109.798" height="109.798" rx="2.5" fill="url(#paint0_linear_98_7)" stroke="#B6895C" stroke-width="5"/>
<ellipse cx="71.0937" cy="63.4997" rx="25.8126" ry="23.7747" transform="rotate(10.9465 71.0937 63.4997)" fill="#F5DB5D"/>
<ellipse cx="33.1583" cy="72.4277" rx="4.16671" ry="3.1085" transform="rotate(10.9465 33.1583 72.4277)" fill="#D9D9D9"/>
<ellipse cx="31.0933" cy="74.0492" rx="4.16671" ry="2.84395" transform="rotate(10.9465 31.0933 74.0492)" fill="#D9D9D9"/>
<ellipse cx="33.8082" cy="76.7299" rx="4.16671" ry="3.1085" transform="rotate(10.9465 33.8082 76.7299)" fill="#D9D9D9"/>
<ellipse cx="38.7494" cy="76.6078" rx="5.82017" ry="5.09265" transform="rotate(10.9465 38.7494 76.6078)" fill="#D9D9D9"/>
<ellipse cx="45.0065" cy="79.4347" rx="4.03444" ry="3.1085" transform="rotate(10.9465 45.0065 79.4347)" fill="#D9D9D9"/>
<ellipse cx="37.0961" cy="71.5725" rx="4.16671" ry="3.1085" transform="rotate(10.9465 37.0961 71.5725)" fill="#D9D9D9"/>
<ellipse cx="48.7011" cy="77.0505" rx="4.16671" ry="3.1085" transform="rotate(10.9465 48.7011 77.0505)" fill="#D9D9D9"/>
<ellipse cx="41.943" cy="70.8932" rx="4.16671" ry="3.1085" transform="rotate(10.9465 41.943 70.8932)" fill="#D9D9D9"/>
<ellipse cx="45.2528" cy="73.2848" rx="4.16671" ry="3.1085" transform="rotate(10.9465 45.2528 73.2848)" fill="#D9D9D9"/>
<ellipse cx="47.6805" cy="82.0296" rx="4.16671" ry="3.1085" transform="rotate(12.2875 47.6805 82.0296)" fill="#FFF9F9"/>
<ellipse cx="45.5781" cy="83.6024" rx="4.16671" ry="2.84395" transform="rotate(12.2875 45.5781 83.6024)" fill="#FFF9F9"/>
<ellipse cx="48.2295" cy="86.3459" rx="4.16671" ry="3.1085" transform="rotate(12.2875 48.2295 86.3459)" fill="#FFF9F9"/>
<ellipse cx="53.1724" cy="86.3394" rx="5.82017" ry="5.09265" transform="rotate(12.2875 53.1724 86.3394)" fill="#FFF9F9"/>
<ellipse cx="59.3613" cy="89.312" rx="4.03444" ry="3.1085" transform="rotate(12.2875 59.3613 89.312)" fill="#FFF9F9"/>
<ellipse cx="51.6373" cy="81.2669" rx="4.16671" ry="3.1085" transform="rotate(12.2875 51.6373 81.2669)" fill="#FFF9F9"/>
<ellipse cx="63.1107" cy="87.015" rx="4.16671" ry="3.1085" transform="rotate(12.2875 63.1107 87.015)" fill="#FFF9F9"/>
<ellipse cx="56.4986" cy="80.7012" rx="4.16671" ry="3.1085" transform="rotate(12.2875 56.4986 80.7012)" fill="#FFF9F9"/>
<ellipse cx="59.7518" cy="83.1696" rx="4.16671" ry="3.1085" transform="rotate(12.2875 59.7518 83.1696)" fill="#FFF9F9"/>
<defs>
<linearGradient id="paint0_linear_98_7" x1="67.2542" y1="9.85522" x2="67.2542" y2="124.653" gradientUnits="userSpaceOnUse">
<stop offset="0.2" stop-color="#115376"/>
<stop offset="1" stop-color="#7FB0CA"/>
</linearGradient>
</defs>
</svg>
