<svg width="62" height="80" viewBox="0 0 62 80" fill="none" xmlns="http://www.w3.org/2000/svg">
<path d="M20.9622 15.0118C18.8867 11.5667 15.8858 4.20734 20.4866 2.33131C25.0874 0.455273 25.806 3.67984 25.5903 5.52663C25.6643 6.62207 25.3877 8.64846 23.6885 7.99055" stroke="black" stroke-width="3" stroke-linecap="round"/>
<path d="M15.724 16.0708C14.7987 12.1566 11.7978 4.7973 7.197 6.67333C2.59622 8.54937 4.33728 11.357 5.78291 12.5264C6.49596 13.3612 8.11073 14.6164 8.86534 12.9579" stroke="black" stroke-width="3" stroke-linecap="round"/>
<path d="M36.2981 29.2025L10.7278 33.693C9.41217 28.2933 9.62175 17.0392 20.9854 15.2196C32.3491 13.4001 35.9287 23.7834 36.2981 29.2025Z" fill="black" stroke="black" stroke-width="10" stroke-linecap="round"/>
<path d="M33.3585 29.5396L12.8502 50.5164C18.0664 61.0037 30.7282 79.5742 39.6462 69.9577C48.5642 60.3411 39.1703 39.0054 33.3585 29.5396Z" fill="black" stroke="black" stroke-width="10" stroke-linecap="round"/>
<path d="M17.0118 74.7542C7.63531 72.3818 9.42559 47.557 11.4928 35.4411C14.7117 34.1286 21.9226 32.479 25.0154 36.381C28.8813 41.2586 28.7325 77.7197 17.0118 74.7542Z" fill="#B70707" stroke="#B70707" stroke-width="10" stroke-linecap="round"/>
<path d="M55.2562 61.6676C61.4665 54.1998 45.5142 34.6954 36.7618 25.8767C33.3874 26.6792 26.5819 29.5457 26.3559 34.5919C26.0733 40.8997 47.4933 71.0024 55.2562 61.6676Z" fill="#A21414" stroke="#A21414" stroke-width="10" stroke-linecap="round"/>
<circle cx="34.8082" cy="33.1722" r="3.98817" transform="rotate(-22.1839 34.8082 33.1722)" fill="black"/>
<circle cx="47.5245" cy="53.0413" r="3.98817" transform="rotate(-22.1839 47.5245 53.0413)" fill="black"/>
<ellipse cx="16.0196" cy="21.3201" rx="1.59527" ry="1.39586" transform="rotate(-22.1839 16.0196 21.3201)" fill="white"/>
<ellipse cx="23.7747" cy="18.1577" rx="1.59527" ry="1.39586" transform="rotate(-22.1839 23.7747 18.1577)" fill="white"/>
<circle cx="16.1988" cy="53.1988" r="3.98817" transform="rotate(-22.1839 16.1988 53.1988)" fill="black"/>
</svg>
