<svg width="62" height="81" viewBox="0 0 62 81" fill="none" xmlns="http://www.w3.org/2000/svg">
<path d="M20.9622 15.2335C18.8867 11.7884 15.8858 4.42902 20.4866 2.55299C25.0874 0.676953 25.806 3.90152 25.5903 5.74831C25.6643 6.84374 25.3877 8.87014 23.6885 8.21223" stroke="black" stroke-width="3" stroke-linecap="round"/>
<path d="M15.724 16.2925C14.7987 12.3783 11.7978 5.01898 7.197 6.89501C2.59622 8.77105 4.33728 11.5787 5.78291 12.748C6.49596 13.5829 8.11073 14.8381 8.86534 13.1796" stroke="black" stroke-width="3" stroke-linecap="round"/>
<path d="M36.2981 29.4242L10.7278 33.9147C9.41217 28.515 9.62175 17.2608 20.9854 15.4413C32.3491 13.6218 35.9287 24.0051 36.2981 29.4242Z" fill="black" stroke="black" stroke-width="10" stroke-linecap="round"/>
<path d="M33.3585 29.7613L12.8502 50.7381C18.0664 61.2254 30.7282 79.7959 39.6462 70.1793C48.5642 60.5628 39.1703 39.2271 33.3585 29.7613Z" fill="black" stroke="black" stroke-width="10" stroke-linecap="round"/>
<path d="M17.0118 74.9759C7.63531 72.6035 9.42559 47.7786 11.4928 35.6628C14.7117 34.3502 21.9226 32.7007 25.0154 36.6027C28.8813 41.4803 28.7325 77.9414 17.0118 74.9759Z" fill="#B70707" stroke="#B70707" stroke-width="10" stroke-linecap="round"/>
<path d="M55.2562 61.8893C61.4665 54.4215 45.5142 34.9171 36.7618 26.0984C33.3874 26.9009 26.5819 29.7674 26.3559 34.8136C26.0733 41.1214 47.4933 71.2241 55.2562 61.8893Z" fill="#A21414" stroke="#A21414" stroke-width="10" stroke-linecap="round"/>
<circle cx="46.1988" cy="41.1988" r="3.98817" transform="rotate(-22.1839 46.1988 41.1988)" fill="black"/>
<circle cx="31.1988" cy="34.1988" r="3.98817" transform="rotate(-22.1839 31.1988 34.1988)" fill="black"/>
<circle cx="16.1988" cy="39.1988" r="3.98817" transform="rotate(-22.1839 16.1988 39.1988)" fill="black"/>
<circle cx="21.1988" cy="65.1988" r="3.98817" transform="rotate(-22.1839 21.1988 65.1988)" fill="black"/>
<circle cx="46.1988" cy="55.1988" r="3.98817" transform="rotate(-22.1839 46.1988 55.1988)" fill="black"/>
<ellipse cx="16.0196" cy="21.5418" rx="1.59527" ry="1.39586" transform="rotate(-22.1839 16.0196 21.5418)" fill="white"/>
<ellipse cx="23.7747" cy="18.3794" rx="1.59527" ry="1.39586" transform="rotate(-22.1839 23.7747 18.3794)" fill="white"/>
<circle cx="12.1988" cy="54.1988" r="3.98817" transform="rotate(-22.1839 12.1988 54.1988)" fill="black"/>
</svg>
