<svg width="66" height="76" viewBox="0 0 66 76" fill="none" xmlns="http://www.w3.org/2000/svg">
<path d="M24.9624 14.2402C23.0317 11.0354 20.2402 4.18962 24.52 2.4445C28.7997 0.69937 29.4682 3.69893 29.2675 5.41685C29.3364 6.43585 29.0791 8.32084 27.4985 7.70884" stroke="black" stroke-width="3" stroke-linecap="round"/>
<path d="M20.0897 15.4286C19.229 11.7875 16.4375 4.94173 12.1578 6.68685C7.87802 8.43198 9.49759 11.0437 10.8423 12.1315C11.5056 12.9081 13.0077 14.0756 13.7097 12.5329" stroke="black" stroke-width="3" stroke-linecap="round"/>
<path d="M39.2284 27.4405L15.4425 31.6176C14.2186 26.5948 14.4136 16.1259 24.9843 14.4333C35.5551 12.7407 38.8849 22.3995 39.2284 27.4405Z" fill="black" stroke="black" stroke-width="10" stroke-linecap="round"/>
<path d="M36.494 27.7543L17.4167 47.2674C22.2689 57.0229 34.0472 74.2975 42.3429 65.352C50.6387 56.4065 41.9002 36.5596 36.494 27.7543Z" fill="black" stroke="black" stroke-width="10" stroke-linecap="round"/>
<path d="M21.2879 69.8136C12.5657 67.6067 14.231 44.5141 16.154 33.2437C19.1482 32.0227 25.856 30.4883 28.7329 34.1181C32.3291 38.6553 32.1907 72.5721 21.2879 69.8136Z" fill="#B70707" stroke="#B70707" stroke-width="10" stroke-linecap="round"/>
<path d="M56.8635 57.6404C62.6405 50.6936 47.8013 32.5503 39.6596 24.347C36.5207 25.0934 30.1901 27.76 29.9798 32.454C29.717 38.3216 49.6423 66.3238 56.8635 57.6404Z" fill="#A21414" stroke="#A21414" stroke-width="10" stroke-linecap="round"/>
<circle cx="37.8424" cy="31.1334" r="3.70988" transform="rotate(-22.1839 37.8424 31.1334)" fill="black"/>
<circle cx="49.6712" cy="49.616" r="3.70988" transform="rotate(-22.1839 49.6712 49.616)" fill="black"/>
<ellipse cx="20.3646" cy="20.1083" rx="1.48395" ry="1.29846" transform="rotate(-22.1839 20.3646 20.1083)" fill="white"/>
<ellipse cx="27.5787" cy="17.1667" rx="1.48395" ry="1.29846" transform="rotate(-22.1839 27.5787 17.1667)" fill="white"/>
<circle cx="20.099" cy="38.5264" r="3.70988" transform="rotate(-22.1839 20.099 38.5264)" fill="black"/>
<circle cx="21.6056" cy="61.4698" r="3.70988" transform="rotate(-22.1839 21.6056 61.4698)" fill="black"/>
</svg>
