<svg width="95" height="100" viewBox="0 0 95 100" fill="none" xmlns="http://www.w3.org/2000/svg">
<path d="M20.8901 51.717C-2.10162 53.0695 -0.523758 79.3297 3.13914 92.2907C4.40704 96.0945 9.30968 99.1375 13.7052 99.4756C19.1995 99.8982 15.8184 90.6001 15.3957 89.7548C14.9731 88.9096 8.65817 71.74 13.7052 68.6227C28.075 59.7472 41.1769 61.8605 57.6599 62.2831C70.8464 62.6212 75.4109 43.8277 75.8335 33.1208C75.8335 28.3309 79.6373 18.5819 86.3996 17.9057C94.8524 17.0604 94.0072 11.1434 94.0072 8.60756C94.0072 6.0717 94.4298 1 77.9468 1C61.4637 1 68.226 20.0189 60.1958 37.3472C52.1656 54.6755 49.6298 50.0265 20.8901 51.717Z" fill="#DEB1A1" stroke="#DEB1A1"/>
<path d="M53.4335 48.3359C55.124 52.4215 59.435 60.5926 63.1542 60.5926" stroke="#C59989" stroke-linecap="round"/>
<path d="M36.1052 51.2944C36.2461 54.5347 36.866 61.0997 38.2184 61.4378" stroke="#C59989" stroke-linecap="round"/>
<path d="M45.8259 51.2944C45.995 54.5347 46.7388 61.0997 48.3618 61.4378" stroke="#C59989" stroke-linecap="round"/>
<path d="M16.6637 52.5623C17.6499 56.2252 19.9603 63.8045 21.3128 64.8189" stroke="#C59989" stroke-linecap="round"/>
<path d="M26.6251 51.6953C27.0263 54.8038 28.1435 61.3009 29.4032 62.421" stroke="#C59989" stroke-linecap="round"/>
<path d="M1.87122 69.8906C4.32489 70.7359 9.61965 72.4265 11.1693 72.4265" stroke="#C59989" stroke-linecap="round"/>
<ellipse cx="82.1344" cy="6.47963" rx="1.25436" ry="1.29839" transform="rotate(-22.1839 82.1344 6.47963)" fill="black"/>
<path d="M3.56178 93.1361C6.03934 93.4993 11.592 90.6002 15.3958 89.7549M1.87122 86.5587C4.34877 86.922 9.47877 84.2606 13.2826 83.4153" stroke="#C59989" stroke-linecap="round"/>
<path d="M1.02588 78.7662C4.40702 78.4845 11.3383 77.8364 12.0146 77.4983" stroke="#C59989" stroke-linecap="round"/>
<path d="M6.09766 58.9019C8.42219 61.4229 13.5362 66.6429 15.3958 67.3547" stroke="#C59989" stroke-linecap="round"/>
<path d="M57.6599 43.0106C61.041 45.0634 70.0856 48.7585 72.4524 48.7585M61.4637 34.3887C64.8448 36.4415 72.6214 38.1925 74.9882 38.1925" stroke="#C59989" stroke-linecap="round"/>
<path d="M63.9995 24.2454C67.3806 25.3724 74.6501 27.6265 76.6788 27.6265" stroke="#C59989" stroke-linecap="round"/>
<path d="M65.2675 15.7925C69.7756 16.9195 79.4682 19.1736 82.1731 19.1736" stroke="#C59989" stroke-linecap="round"/>
</svg>
