<svg width="101" height="85" viewBox="0 0 101 85" fill="none" xmlns="http://www.w3.org/2000/svg">
<ellipse cx="23.822" cy="38.3309" rx="15.4618" ry="13.0831" transform="rotate(-1.1495 23.822 38.3309)" fill="#FFF9F9"/>
<ellipse cx="33.1442" cy="28.627" rx="15.4618" ry="13.0831" transform="rotate(-1.1495 33.1442 28.627)" fill="#FFF9F9"/>
<circle cx="50.5371" cy="25.8987" r="15.4618" transform="rotate(-1.1495 50.5371 25.8987)" fill="#FFF9F9"/>
<path d="M26.305 63.2629C26.2523 60.6359 28.3391 58.4636 30.9661 58.4109C33.593 58.3582 35.7653 60.445 35.818 63.072L35.9373 69.0177C35.9769 70.9879 34.4117 72.6171 32.4415 72.6566L30.0633 72.7043C28.093 72.7439 26.4638 71.1787 26.4243 69.2085L26.305 63.2629Z" fill="#1E2F38"/>
<path d="M57.2224 62.6425C57.1697 60.0156 59.2565 57.8433 61.8835 57.7905C64.5104 57.7378 66.6827 59.8247 66.7354 62.4516L66.8547 68.3973C66.8943 70.3675 65.3292 71.9967 63.3589 72.0363L60.9807 72.084C59.0105 72.1235 57.3812 70.5584 57.3417 68.5882L57.2224 62.6425Z" fill="#1E2F38"/>
<ellipse cx="29.1976" cy="49.326" rx="15.8583" ry="13.0831" transform="rotate(-1.1495 29.1976 49.326)" fill="#FFF9F9"/>
<ellipse cx="44.72" cy="52.1869" rx="15.4618" ry="13.0831" transform="rotate(-1.1495 44.72 52.1869)" fill="#FFF9F9"/>
<ellipse cx="60.5751" cy="51.8687" rx="15.4618" ry="13.0831" transform="rotate(-1.1495 60.5751 51.8687)" fill="#FFF9F9"/>
<ellipse cx="81.6056" cy="32.8095" rx="13.0831" ry="11.1008" transform="rotate(-1.1495 81.6056 32.8095)" fill="#1E2F38"/>
<ellipse cx="83.7691" cy="22.0596" rx="1.98228" ry="3.56811" transform="rotate(-1.1495 83.7691 22.0596)" fill="#1E2F38"/>
<ellipse cx="66.0753" cy="29.5523" rx="15.8583" ry="13.0831" transform="rotate(-1.1495 66.0753 29.5523)" fill="#FFF9F9"/>
<ellipse cx="71.5146" cy="43.7185" rx="15.4618" ry="13.0831" transform="rotate(-1.1495 71.5146 43.7185)" fill="#FFF9F9"/>
</svg>
