<svg width="26" height="32" viewBox="0 0 26 32" fill="none" xmlns="http://www.w3.org/2000/svg">
<path d="M12.5166 2.69897C12.5587 2.53955 12.6296 2.46293 12.6922 2.41806C12.7665 2.36478 12.8741 2.32673 13 2.32673C13.1259 2.32673 13.2335 2.36478 13.3078 2.41806C13.3704 2.46293 13.4413 2.53955 13.4834 2.69897L15.3746 9.85437C15.6271 10.8094 16.2713 11.6133 17.1485 12.0677L23.882 15.556C24.2421 15.7425 24.242 16.2575 23.882 16.444L17.1485 19.9323C16.2713 20.3867 15.6271 21.1906 15.3746 22.1456L13.4834 29.301C13.4413 29.4604 13.3704 29.5371 13.3078 29.5819C13.2335 29.6352 13.1259 29.6733 13 29.6733C12.8741 29.6733 12.7665 29.6352 12.6922 29.5819C12.6296 29.5371 12.5587 29.4604 12.5166 29.301L10.6254 22.1456C10.3729 21.1906 9.72865 20.3867 8.85151 19.9323L2.11796 16.444C1.75794 16.2575 1.75796 15.7425 2.11796 15.556L8.85151 12.0677C9.72865 11.6133 10.3729 10.8094 10.6254 9.85437L12.5166 2.69897Z" stroke="#F5F5F5" stroke-width="3"/>
</svg>
