<svg width="154" height="88" viewBox="0 0 154 88" fill="none" xmlns="http://www.w3.org/2000/svg">
<ellipse cx="35.3565" cy="38.0949" rx="24.1567" ry="18.0217" transform="rotate(1.34098 35.3565 38.0949)" fill="#FFF9F9"/>
<ellipse cx="25.1206" cy="49.3616" rx="24.1567" ry="16.4879" transform="rotate(1.34098 25.1206 49.3616)" fill="#FFF9F9"/>
<ellipse cx="43.2335" cy="62.0591" rx="24.1567" ry="18.0217" transform="rotate(1.34098 43.2335 62.0591)" fill="#FFF9F9"/>
<ellipse cx="71.3606" cy="56.5808" rx="33.7428" ry="29.5249" transform="rotate(1.34098 71.3606 56.5808)" fill="#FFF9F9"/>
<ellipse cx="109.862" cy="66.6872" rx="23.3899" ry="18.0217" transform="rotate(1.34098 109.862 66.6872)" fill="#FFF9F9"/>
<ellipse cx="57.0387" cy="29.3974" rx="24.1567" ry="18.0217" transform="rotate(1.34098 57.0387 29.3974)" fill="#FFF9F9"/>
<ellipse cx="128.675" cy="49.4845" rx="24.1567" ry="18.0217" transform="rotate(1.34098 128.675 49.4845)" fill="#FFF9F9"/>
<ellipse cx="84.0875" cy="20.8254" rx="24.1567" ry="18.0217" transform="rotate(1.34098 84.0875 20.8254)" fill="#FFF9F9"/>
<ellipse cx="105.321" cy="31.2947" rx="24.1567" ry="18.0217" transform="rotate(1.34098 105.321 31.2947)" fill="#FFF9F9"/>
</svg>
