<svg width="633" height="748" viewBox="0 0 633 748" fill="none" xmlns="http://www.w3.org/2000/svg">
<path d="M362.899 460.66C346.899 559.46 242.232 509.66 214.399 485.66C169.399 459.159 195.899 402.16 194.399 367.16C192.899 332.159 230.899 333.66 272.399 332.16C313.899 330.66 304.399 315.66 330.899 273.66C357.399 231.66 275.899 270.66 244.399 212.16C212.899 153.66 320.899 133.66 362.899 135.66C404.899 137.66 417.899 62.1596 427.899 18.6596C437.899 -24.8404 525.899 20.6596 504.399 62.1596C482.899 103.66 575.899 123.66 609.399 160.66C642.899 197.66 625.899 242.16 575.899 258.66C525.899 275.16 527.899 308.66 504.399 345.66C480.899 382.66 544.399 385.66 514.399 402.16C484.399 418.66 467.899 373.66 462.899 402.16C458.899 424.96 452.167 434.833 450.5 437C434.5 442.5 378.899 361.86 362.899 460.66Z" fill="#670A0A" fill-opacity="0.9" stroke="#670A0A" stroke-opacity="0.85"/>
<path d="M368.899 464.66C352.899 563.46 248.232 513.66 220.399 489.66C175.399 463.159 201.899 406.16 200.399 371.16C198.899 336.159 236.899 337.66 278.399 336.16C319.899 334.66 310.399 319.66 336.899 277.66C363.399 235.66 281.899 274.66 250.399 216.16C218.899 157.66 326.899 137.66 368.899 139.66C410.899 141.66 423.899 66.1596 433.899 22.6596C443.899 -20.8404 531.899 24.6596 510.399 66.1596C488.899 107.66 581.899 127.66 615.399 164.66C648.899 201.66 631.899 246.16 581.899 262.66C531.899 279.16 533.899 312.66 510.399 349.66C486.899 386.66 550.399 389.66 520.399 406.16C490.399 422.66 473.899 377.66 468.899 406.16C464.899 428.96 458.167 438.833 456.5 441C419.5 451.5 384.899 365.86 368.899 464.66Z" fill="#670A0A" fill-opacity="0.7"/>
<path d="M1 747C80.1833 622.7 62.421 641 79.1873 588C93.6295 598.876 116.538 607.163 126 610.788C80.9801 645.178 60.927 713.681 58.7689 747H1Z" fill="#D9D9D9" fill-opacity="0.3" stroke="#D9D9D9"/>
<path d="M325 412.5C283.8 361.7 190.167 331.333 148.5 322.5C-15.4999 504.5 68.5001 578.5 79.0001 588C87.4001 595.6 118.167 607.5 132.5 612.5C250.1 645.7 309.833 493 325 412.5Z" fill="#D9D9D9" fill-opacity="0.3" stroke="#D9D9D9"/>
</svg>
